<?xml version="1.0" encoding="UTF-8"?>
<svg id="Layer_2" data-name="Layer 2" xmlns="http://www.w3.org/2000/svg" viewBox="0 0 457.59 134.44">
  <defs>
    <style>
      .cls-1, .cls-2 {
        fill: #fff;
      }

      .cls-2 {
        fill-rule: evenodd;
      }
    </style>
  </defs>
  <g id="Layer_2-2" data-name="Layer 2">
    <g>
      <path class="cls-1" d="M78.07,130.28c-.05.19-.51,1.11-.69,1.13.5-.06,1.01-.6,1.21-1.04.22-.49.14-1.02.15-1.55l.82-.12c.29,1.24-.02,2.09-.98,3,.77,0,1.23-.31,1.58-.96.26-.48.61-1.17.69-1.7l.16-.96s.49-.31.53-.38c.43-.45.36-.99.62-1.51.21-.45.74-.73,1.14-.97.1-.06,1.03-.3,1.6-.41.24-.04.42-.06.42-.02,0-.06.05-.6.03-.6-.64-.26-1.33-.39-1.97-.71-.51-.24-.99-.55-1.41-.93-.47-.43-.66-.92-1-1.42,0,0-1.44-2.08-5.08-2.13,0,0-4.36.27-5.12-.8-.1-.14-.21-.3-.34-.4.01,1.05,1.14,1.62,2.04,1.65.35.01,1.29-.03,1.48.36.19.4.72,1.9-.44,3.29,0,0-2.52-2.22-3.52-2.33.25.02.79,1.11.89,1.31.77,1.38,1.09,2.62,1.01,4.2-.03.57-.16,1.19-.24,1.77-.04.29-.21.74-.15,1.02.86-.09,1.39-1.6,1.66-2.27.22-.54.44-1.1.63-1.65-.12.35.34.68.43,1.02.1.37.06.77.1,1.14.08.77,0,1.56.2,2.32.09.33-.02,1.34.42,1.47.47.14,1.33-1.04,1.68-1.3.1-.08,1.47-.98,1.47-.88.02.44.08.91-.01,1.33"/>
      <path class="cls-1" d="M31.69,10.15c-10.85,6.77-19.64,16.56-25.19,28.18,3.11-2.23,7.6-5.01,9.47-3.99,3.01,1.65,2.99,12.2,2.99,12.2,0,0,1.09-10.86,5.93-12.78,4.85-1.92,11.36,4.9,11.36,4.9,0,0-5.08-7.14-4.29-11.6.78-4.44,13.08-5.26,13.08-5.26,0,0-10.89.24-12.02-3.62-1.14-3.86,7.14-12.35,7.14-12.35l-8.47,4.32Z"/>
      <path class="cls-1" d="M127.54,64.54c2.62,2.81,4.75,4.18,2.79,8.85,0,0,3.08-2.75,4.11-6.14v-.03c0-1.73-.07-3.45-.19-5.16-.83-2.05-2.55-3.19-4.28-3.4-.1-.01-.21-.02-.32-.02-2.42,0-4.62,3.21-2.11,5.9"/>
      <path class="cls-1" d="M38.44,64.96c3.15,2.54,3.33,7.38-2.66,7.1-5.99-.28-10.87.56-13.76,7.11,0,0-.62-8.26,3.71-12.39,2.24-2.14,4.72-3.23,7.03-3.44,2.15-.19,4.16.39,5.68,1.62"/>
      <path class="cls-1" d="M113.06,70.03l-4.86-3.31s-2.02-1.77-3.84-.1c-1.82,1.68-3.38,3.85-3.38,3.85,0,0-4.57-.09-4.6-.09-.91-.01-1.02-2.29-1.66-2.8-.39-.3-3.02,2.31-3.66,2.43-1.53.26-3.64-.72-4.88-1.54-2.08-1.35-4.39-3.17-5.78-5.19-.35-.5-1.71-2.61-2.57-2.29-.55.21.31,2.46.4,2.91.34,1.58.91,2.74,1.67,4.19.61,1.18,1.58,2.32,1.16,3.68-.27.87-.7,1.71-1.16,2.48-.53.91-1.14,1.79-1.8,2.61-.53.65-1.47,1.31-1.84,2.04-.77,1.47,1.33.62,2.05.39,2.62-.87,5.18-1.82,7.76-2.8,1.35-.5,3.46-1.36,4.89-.5,1.11.66-1.82,5.4-.75,6.57,1.23-.3,2.33-1.07,3.52-1.51,1.2-.42,2.47-.47,3.76-.56.03,0,3.74-.25,4.03.82l.54,2.79s.25.35,1.91.05c1.67-.3,5.32-2.15,5.7-2.07,10.61,1.83,22.59-1.44,22.59-1.44.81-.4,1.03-.74.18-1.28.42.18.99.06,1.35-.22.07-.05.12-.1.17-.16.05-.06-7.52-4.68-8.06-4.96-4-2.05-8.36-3.57-12.85-3.99"/>
      <path class="cls-1" d="M56.9,100.57c.58-1.19,1.95-1.93,3.01-2.55.28-.16,2.75-.82,4.23-1.09.64-.12,1.09-.16,1.1-.06,0-.17.11-1.57.08-1.58-1.7-.69-3.52-1.05-5.19-1.87-1.34-.65-2.63-1.45-3.74-2.45-1.25-1.14-1.73-2.44-2.64-3.76,0-.01-3.79-5.48-13.41-5.62,0,0-11.54.73-13.54-2.11-.26-.36-.52-.75-.88-1.03.02,2.77,3.01,4.25,5.39,4.34.93.03,3.42-.11,3.91.94.49,1.07,1.91,5.02-1.17,8.69,0,0-6.65-5.87-9.28-6.16.66.07,2.07,2.93,2.36,3.45,2.01,3.66,2.89,6.94,2.66,11.11-.08,1.49-.42,3.15-.64,4.67-.12.77-.57,1.95-.4,2.72,2.28-.27,3.65-4.26,4.36-6.01.58-1.43,1.17-2.89,1.67-4.36-.31.92.89,1.79,1.14,2.7.26.97.16,2.03.26,3.03.22,2.02.02,4.11.52,6.11.23.91-.05,3.56,1.1,3.91,1.25.36,3.51-2.76,4.42-3.46.27-.2,3.9-2.57,3.91-2.3.03,1.14.2,2.39-.07,3.51-.12.48-1.33,2.93-1.82,2.98,1.33-.16,2.68-1.57,3.22-2.76.59-1.3.37-2.69.4-4.06l2.16-.33c.76,3.28-.08,5.56-2.58,7.93,2.04-.04,3.24-.81,4.19-2.57.68-1.25,1.6-3.06,1.83-4.46,0,0,.41-2.52.41-2.53.02-.11,1.28-.85,1.42-1,1.16-1.19.97-2.63,1.62-3.98"/>
      <path class="cls-1" d="M71.09,112.26c.11-.07,1.19-.34,1.84-.45.27-.05.48-.07.48-.03,0-.07.06-.68.04-.68-.73-.3-1.52-.47-2.25-.83-.58-.29-1.14-.64-1.62-1.08-.53-.5-.73-1.07-1.13-1.65,0,0-1.62-2.39-5.8-2.48,0,0-5.01.26-5.87-.98-.11-.17-.22-.33-.38-.46,0,1.2,1.29,1.86,2.32,1.91.4.01,1.48-.04,1.69.41.21.47.81,2.19-.54,3.77,0,0-2.86-2.58-4-2.72.29.04.89,1.29,1.01,1.51.86,1.6,1.23,3.03,1.11,4.84-.05.64-.2,1.37-.3,2.02-.05.34-.26.85-.18,1.18.99-.11,1.6-1.83,1.92-2.59.26-.61.52-1.24.74-1.89-.13.4.39.79.49,1.18.11.42.06.87.1,1.31.09.88,0,1.79.21,2.65.09.39-.04,1.55.46,1.7.54.16,1.54-1.18,1.94-1.48.11-.09,1.7-1.1,1.7-.98,0,.5.08,1.04-.04,1.53-.05.21-.59,1.26-.8,1.28.58-.06,1.17-.67,1.4-1.18.26-.56.18-1.16.19-1.76l.94-.14c.32,1.43-.06,2.41-1.15,3.43.89,0,1.41-.34,1.83-1.1.3-.54.71-1.32.82-1.94,0,0,.19-1.09.19-1.09,0-.04.56-.36.62-.43.5-.51.42-1.13.72-1.72.26-.5.85-.82,1.32-1.09"/>
      <path class="cls-1" d="M107.27,100.03c0-.06-.02-.12-.03-.18.02.07.02.13.03.18M105.58,90.54c.05-.03.11-.06.16-.09-.08,0-.13.04-.16.09M94.05,86.42c.2.19-.19.57,0,.57.2.19.57,0,.57.19-1.53.58-2.87,1.35-4.03,2.49h.77c-.96.77-1.53,1.73-2.11,2.88,1.15-1.34,3.07-2.49,4.42-2.88,0,.19-.2.58-.2.77,1.34-.19,1.54.18,2.3.57-3.83-.39-6.91,2.3-6.71,6.33.38-.58.95-1.15,1.14-1.54q.2.2.2.39c.19-.58.57-1.15.77-1.72.96-.19,2.3-.77,3.26-.58-1.34.76-2.3,1.91-2.87,3.26.38-.2.77-.38,1.15-.58-.38.39-.76.78-.96,1.15,0,0,.77-.19.96-.19-.19,0-.19.19-.19.38.38,0,.77-.19,1.16-.38v.38c.76-.19,1.91-.19,2.68-.56-1.53,1.71-1.15,4.8-1.92,6.9-.57,2.3-1.53,4.79-2.49,7.09-1.35,4.03-2.14,8.59-3.67,12.42-1.71-4.17-3.81-9.34-4.77-14.13.38.95.96,1.92,1.53,2.87v-3.06c.77.57,1.34,1.53,1.34,2.68.1.1.2,0,.29-.09.09-.09.19-.19.28-.09v1.14c.19,0,.19-.19.39-.19.57.77,1.15,1.16,1.92,1.92-.96-1.34.19-3.25-1.54-3.63.19-1.92-1.34-3.45-1.72-5.38.58.77,1.35.96,1.72,1.92.19-.19.38-.77.38-.97.19.38.38.77.58,1.16l.19-.78c.2.39,0,.78.39.97.76.19,1.34.95,1.73,2.11.38-.95.38-1.72,0-2.68.1-.1.14-.05.19,0,.05.05.1.09.19,0-.77-1.54-1.16-3.26-2.88-3.65.96.2,1.53.2,2.3.39,0-.19-.2-.39-.38-.57.38.38.77.57.96,1.15.19,0,0-.58,0-.58.38.38.77.96,1.15,1.35,0-3.07-1.72-5.18-4.99-4.22,1.73-1.36,3.65-.19,5.56-.19.2-2.31-3.83-4.61-5.17-2.12-.19,0-.19-.38-.39-.38-.19.38-.57.77-.76,1.16-.58,0-.39-.39-.96,0,.37-.58.37-1.54.96-2.12-.19-.19-.77-.37-.96-.37.57-.78,1.14-1.92,1.53-2.69-2.31-.19-4.03,2.49-4.8,4.22-.38,0-.38-.38-.77-.57-.39,0,.19.57-.39.57-.18-.2-.38-.57-.77-.96.19.39.19.77,0,1.15-.18-.57-.76-1.34-.96-1.71,0,.19-.2.76-.2.96-1.53-2.5-4.03-.39-3.83,1.91.96-.96,2.88-1.53,3.26.39-2.1,0-3.84.96-5.76,1.15.38.96.96,1.35,2.3,1.15,0,.38-.38,1.15-.57,1.15.19.09.38.05.55,0,.17-.05.31-.1.41,0-.77,1.72-1.54,6.91-.77,8.24,0-.38,0-.96.19-1.53.19.77.77,1.34,1.15,1.92.19-1.34.58-2.11,1.34-3.25-.38,2.3,1.72,3.44,3.46,4.4-.77-.58-1.35-1.53-1.54-2.49.19,0,.38,0,.57.2-.19-.57-.38-1.35-.57-1.73l.57.39c.2-.19.38-.95.58-1.15,1.91,4.22,3.65,8.44,5.18,12.85,1.2,3.48,1.48,6.39,1.2,9.53,1.46-.45,2.89-.95,4.31-1.51-.72-1.69-1.21-3.37-1.3-4.38-.19-7.28,3.65-16.68,6.33-23.19.19-.19.57.19.76.19.38-.58.77-.97,1.16-1.34.38,1.15-.19,2.3-.96,3.44.19-.18.77-.38,1.15-.57,0,.39-.38.77-.58,1.15.39,0,.77,0,.96.39-.77.96-1.35,2.11-1.35,3.25,1.92-.76,2.69-3.25,2.69-5.17.19-.19.38.19.57.19.19-.37.19-.96.58-1.33-.19.38-.19,1.15-.39,1.72.39-.57.96-.76,1.35-1.15-.77.96-1.15,2.11-.96,3.25.19-.19.96-.95,1.34-1.34-.38,1.53-1.34,3.07-.96,4.42,1.92-2.5,3.45-5.37,1.15-8.05.38.37,1.15.77,1.54,1.33-.19-.96-.77-1.91-1.35-2.86.57.76,1.35,1.53,1.73,2.3,0,0,.38-.4.57-.4,0,1.92.77,3.26.57,5.37,2.31-3.26.77-6.7-1.91-9.39.96.39,1.91,1.34,2.3,2.3-.19-.57-.19-1.34-.19-1.91.36.54.72.75.92,1.73-.16-.92-.14-1.96.03-2.49.77,1.71.2,3.84,1.16,5.55,1.34-2.49.77-5.75-1.54-7.47-1.15-.77-4.4-1.73-5.55-1.15,3.06-2.3,6.13.19,8.24,2.29-.19-1.53-.96-3.25-2.1-4.22.38-.19.77-.19,1.15-.19-.58-.39-.96-1.15-1.53-1.54.19-.18.58-.18.77-.57-.77.19-1.73.38-2.3.76,0-.1,0-.2.03-.29-.52.32-1.04.51-1.56.86.38-.38.76-.95.96-1.15-.58.38-1.54.77-2.11,1.53.19-1.92,2.68-3.45,4.41-2.68-2.11-.96-3.45-2.68-5.56-.96-.19-1.72-.19-4.41-2.49-4.79-3.26-.76-3.07,2.49-.19,2.88-.38,0-.96.58-1.54.58.57.38,1.15.96,1.54,1.15-1.15.19-6.33-3.64-6.9-5.17-.96,1.53-.19,3.84,1.92,3.64"/>
      <path class="cls-1" d="M117.93,38.88c-4.22.9-3.15,9.4-2.39,12.93,1.14,5.26,7.88,12.37,7.88,12.37,0,0,3.45-8.05,2.05-14.53-1.06-4.87-3.03-10.87-6.74-10.87-.26,0-.52.03-.79.1"/>
      <path class="cls-1" d="M100.51,45.14c-2.91,4.52-3.18,14.32-3.18,14.32,0,0,8.13-3.25,11.72-8.83,2.89-4.49,5.92-10.61,2.3-12.95-.52-.34-1.08-.48-1.64-.48-3.42,0-7.52,5.34-9.2,7.94"/>
      <path class="cls-1" d="M123.44,35.07c-2.33,3.62,4.42,8.87,7.45,10.83.04.02.08.05.12.07-1.45-4.35-3.32-8.49-5.58-12.39-.8.23-1.48.71-1.98,1.49"/>
      <path class="cls-1" d="M109.86,30.32c0,3.43,2.78,6.21,6.22,6.21s6.22-2.78,6.22-6.21c0-.78-.15-1.54-.41-2.23-.68-.94-1.37-1.86-2.09-2.76-1.04-.78-2.33-1.24-3.73-1.24-3.44,0-6.22,2.78-6.22,6.22"/>
      <path class="cls-1" d="M114.22,21.77c.67-.15,1.21-.47,1.63-.96-2.66-2.77-5.54-5.33-8.64-7.63,1.24,4.66,3.36,9.37,7,8.58"/>
      <path class="cls-1" d="M95.76,23.3c4.49,2.88,10.61,5.92,12.96,2.28,2.33-3.62-4.42-8.87-7.46-10.83-4.53-2.91-14.32-3.17-14.32-3.17,0,0,3.25,8.13,8.82,11.72"/>
      <path class="cls-1" d="M116.47,85.38c-16.14,5.82,8.75,22.08-22.97,36.93,0,0,9.25,1.69,19.09-5.49,4.82-4.41,8.98-9.51,12.36-15.15,5.5-11.33-.41-16.74-5.85-16.74-.9,0-1.8.16-2.62.44"/>
      <path class="cls-1" d="M65.82,134.44h0s-.01,0,0,0h0s-.01,0,0,0h0s-.02,0,0,0h0v-7.62c-1.35,0-1.29.87-2.62.78-1.81-.12-3.59-3.41-5.35-3.68-1.47-.23-2.93.15-4.36.51-1.68.44-3.34.88-4.96.35-3.59-1.18-4.27-5.15-7.53-6.94-3.59-1.96-9.71-1.8-12.81-4.42-2.07-1.76-1.62-4.94-3.43-6.95-1.18-1.3-4.7-1.35-5.76-2.74-.75-1,.23-3.38-.47-4.43l-7.09,5.45c11.44,16.97,30.42,28.44,52.12,29.6h0s.04,0,.06,0h0c.07,0,.13,0,.2,0h.07c.07.01.13.01.2.01h0s.04,0,.06,0h.02s.08,0,.12,0h0s.04,0,.06,0h.07s.09,0,.13,0h.14c.05,0,.09,0,.14,0h0s.04,0,.05,0h.08s.09,0,.12,0h.14s.04,0,.06,0h0s.04,0,.06,0h.15s.03.01.05.01h.17s.02,0,.04,0h.01"/>
      <path class="cls-1" d="M76.09,87.57c0,2.66,2.15,4.82,4.81,4.82s4.81-2.16,4.81-4.82-2.16-4.8-4.81-4.8-4.81,2.15-4.81,4.8"/>
      <path class="cls-1" d="M99.67,63.31c0,1.27,1.03,2.29,2.29,2.29s2.3-1.01,2.3-2.29-1.03-2.29-2.3-2.29-2.29,1.02-2.29,2.29"/>
      <path class="cls-1" d="M113.41,65.2c1.92,0,3.47-1.55,3.47-3.47s-1.55-3.46-3.47-3.46-3.46,1.55-3.46,3.46,1.55,3.47,3.46,3.47"/>
      <path class="cls-1" d="M42.79,29.81c-2.4,0-4.36,1.96-4.36,4.36s1.96,4.36,4.36,4.36,4.37-1.95,4.37-4.36-1.95-4.36-4.37-4.36"/>
      <path class="cls-1" d="M52.48,32.3c-1.47,0-2.66,1.2-2.66,2.66s1.19,2.66,2.66,2.66,2.65-1.19,2.65-2.66-1.18-2.66-2.65-2.66"/>
      <path class="cls-1" d="M50.37,42.12c-1.16,0-2.11.95-2.11,2.11s.95,2.11,2.11,2.11,2.11-.95,2.11-2.11-.95-2.11-2.11-2.11"/>
      <path class="cls-1" d="M21.14,97.94c0,1.47,1.18,2.66,2.66,2.66s2.66-1.2,2.66-2.66-1.19-2.67-2.66-2.67-2.66,1.2-2.66,2.67"/>
      <path class="cls-1" d="M7.93,40.24c0,1.47,1.19,2.66,2.66,2.66s2.65-1.19,2.65-2.66-1.18-2.65-2.65-2.65-2.66,1.19-2.66,2.65"/>
      <path class="cls-1" d="M2.62,48.22c0,1.46,1.19,2.66,2.66,2.66s2.66-1.19,2.66-2.66-1.19-2.66-2.66-2.66-2.66,1.19-2.66,2.66"/>
      <path class="cls-1" d="M1,55.61c-.3,1.71-.53,3.44-.69,5.19.25.08.52.13.79.13,1.48,0,2.66-1.19,2.66-2.66s-1.19-2.66-2.66-2.66c-.03,0-.06,0-.1,0"/>
      <path class="cls-1" d="M43.84,4.18c1.59.86,3.37.33,5.19-.22,1.37-.41,2.76-.82,4.11-.63,3.27.5,5.27,3.77,8.79,4.76.43.12.86.09,1.31.06.6-.05,1.24-.09,1.96.2,1.25.75,1.76,2.76,3.51,3.27,1.76.49,3.01-.75,4.53-.75,2.51-.25,2.51,0,4.52.75,6.95,1.86,9.43-3.26,8.85-8.79-6.13-1.84-12.64-2.83-19.37-2.83-8.22,0-16.1,1.48-23.38,4.18"/>
      <path class="cls-2" d="M29.79,39.55c.05.16-.22,0-.22.11.35.11.64-.17,1.25-.11.33.03.71.18,1.06.22.5.06.93.09,1.25.3.58,0,1.01.34,1.48.53.12.04.29.02.41.08.2.07.39.26.6.37,1.4.73,2.9,1.6,4.01,2.61.35.13.63.33.83.6,0,.18-.23.26-.11.42.34.18.67-.2.91-.38.49-.37.96-.73,1.43-1.13.54-.46,1-1.07,1.59-1.44.4-.25.92-.44,1.55-.5-.67.86-.68,2.37-1.21,3.37-.07.7.18,1.27.3,1.77.09.35.06.77.16,1.02.15.41.63.54.72.94-1.24.1-2.18-.53-2.99-1.1-.7-.48-1.41-.89-2.04-1.36-.18.02-.45-.04-.57.04-.03.18.11.24.18.42-.35.61-.99.54-1.59.76-.44.15-.91.44-1.32.67-.69.4-1.26.73-2.09,1.06-.28.12-.55.2-.83.31-.67.25-1.14.49-1.93.6-.31.04-.64.19-.94.23-.64.07-1.36-.02-2.08-.08-.24-.01-.46-.12-.72-.15-.76-.08-1.43,0-2.23-.15-.84-.16-1.72-.63-2.31-1.1-.83-.66-1.47-1.78-2.2-2.5-.2-.21-.5-.36-.41-.87.05-.31.33-.42.46-.73.55-2.46,2.8-3.22,4.69-4.35.96-.19,1.67-.63,2.92-.52"/>
      <path class="cls-2" d="M42.52,50.53c.06.17-.23,0-.23.11.36.11.64-.17,1.25-.11.33.03.72.19,1.06.22.49.06.92.09,1.25.31.58,0,1.01.34,1.47.53.12.05.29.02.42.07.19.09.39.28.6.39,1.4.73,2.89,1.6,4.01,2.61.35.14.62.34.83.6,0,.18-.22.25-.11.42.34.18.67-.2.91-.38.49-.37.96-.73,1.44-1.14.54-.45,1-1.06,1.59-1.43.4-.26.93-.44,1.55-.49-.67.85-.68,2.37-1.21,3.37-.08.69.18,1.27.3,1.78.09.34.06.75.16,1.02.15.41.63.53.71.94-1.23.1-2.18-.52-2.99-1.1-.7-.48-1.41-.89-2.04-1.36-.18.01-.44-.04-.56.03-.02.19.11.25.19.42-.35.62-.99.55-1.59.76-.44.15-.91.45-1.33.68-.69.38-1.26.72-2.07,1.06-.28.12-.56.2-.84.3-.67.25-1.14.5-1.93.61-.31.04-.64.19-.94.23-.63.07-1.36-.02-2.08-.07-.25-.03-.46-.13-.72-.16-.76-.07-1.43,0-2.23-.15-.83-.16-1.71-.63-2.3-1.1-.83-.66-1.47-1.77-2.2-2.5-.2-.2-.5-.36-.41-.86.05-.31.33-.42.46-.73.55-2.46,2.8-3.22,4.69-4.34.96-.2,1.66-.64,2.91-.53"/>
      <path class="cls-2" d="M63.32,14.08h-1.32c-3.73.4-8.52-.29-8.99,3.39-.03.22.05.48,0,.76-.12.67-.65,1.04-.1,1.66.07.08.29.15.2.31-3.62-.43-5.54-2.63-8.8-3.49,1.15.76,2.16,2.2,2.63,3.84.12.41.05.73.05,1.27,0,.8.17,1.77.05,2.58-.03.16-.19.26-.26.45-.07.19-.03.41-.1.56-.17.35-.63.58-.55,1.01,2.76-.49,3.84-2.65,6.42-3.34.16.65.62,1.09.95,1.62.39.61.67,1.31,1.17,1.82.97.97,2.66,1.98,4.09,2.48.8.26,1.74.37,2.68.4,1.45.04,2.98-.26,4.55-.2-.21.79-.89,1.29-1.16,2.22-.14.49-.34.87.05,1.17h.05c.83-.33,1.71-1.01,2.37-1.72.49-.52.99-1.37,1.51-1.67.26-.15.65-.15.96-.26,1.78-.61,3.26-1.65,4.55-2.83.53-.19,1.12-.02,1.47-.35,0-.23-.13-.31-.16-.5.28,0,.58.04.61-.2v-.1c.01-.52-.49-.83-.71-1.21-1.05-1.83-.95-3.86-1.87-5.46-.85-1.48-2.57-2.49-4.15-3.13-1.71-.7-3.69-.96-6.22-1.06"/>
      <path class="cls-1" d="M83.71,22.81c-1.24.54-3.05.53-3.78,1.57.84,2.2,4.13,1.96,4.57,4.57-2-.4-3.56,1.01-5.2,1.26-.35.07-.71.03-1.07,0-.37-.04-.76-.07-1.14,0-1.63.34-2.42,1.56-3.79,2.38-1.17.69-2.51,1.04-3.62,1.9-.69.52-1.08,1.29-1.74,1.89-.69.62-1.7.85-2.36,1.41-1.24,1.09-1.76,2.76-3.15,3.47-1.25-1.04-5.11-1.18-6.15.16v1.26c.89,1.9,2.44,3.13,4.57,3.79-.27,1.86,1.08,1.77.63,3.47-1.32.67-3.06.07-4.1-.48.2,2.44,3.19,2.9,5.67,2.53-.37.72,1.16,1.14,1.11,1.73-.03.33-1.42,1.19-1.74,1.58-1.61,1.98-2.85,4.76-2.67,7.41.18.07.36.17.47.32h1.27c4.08-1.49,6.75-4.4,8.51-8.2.69-.05,1.47.01,2.24.07,1.9.14,3.83.28,4.85-1.02.2.19.61.18,1.03.16.19-.01.38-.02.55,0,.9-.36,1.53-.99,2.21-1.58,2.09.04,4.24-2.06,5.83-2.52.8,4.28-.59,7.72-1.43,10.88,7.41.57,10.66-10.76,6.31-16.24.53-.63,1-1.31,1.73-1.73.17-1.7-.56-2.48-.78-3.78,3.95-.62,8.24-.91,9.62-4.11.58-.1,1.03-.33,1.42-.63v-.63c-.76-2.29-3.14-3.05-5.99-2.68-3.21.42-5.18,4.11-7.4,1.58,2.54-3.18-.8-9.36-4.42-9.77h-2.05Z"/>
      <path class="cls-1" d="M11.26,53.48c-1.5,1.49-3.4,4.67-1.66,10.55,2.14,7.18,19.76,21.38.99,34.67l3.11-1.41c15.44-13.36.04-27-2.51-34.72-1.17-3.56.04-7.2,2.39-9.17,3.22-1.78,8.08-.04,8.41,4.74.25,3.53-4.16,6.07-7.15,3.71-1.09-.86-1.69-2.74-.68-3.94,1.71-2.04,4.52.72,2.76,1.93l.04.1c1.96-1.39-1.13-4.28-3-2.05-1.09,1.3-.43,3.29.74,4.22,3.24,2.56,7.61,0,7.54-3.79-.09-4.54-4.13-6.53-7.47-5.71,1.79-.92,4-.98,6.25.37,3.39,2.03,5.58,6.43,2.43,10.07-1.68,1.96-4.73,2.98-7.47.86l-.37-.45c1.94,3,6.3,1.87,8.07-.2,3.12-3.62,1.41-8.65-2.05-11.14-1.22-.87-2.67-1.29-4.15-1.29-2.21,0-4.5.92-6.22,2.64"/>
      <path class="cls-1" d="M4.81,92.26s.03.06.04.09c.96-.23,2.41.87,1.62,2.31-.1.2-.25.37-.41.52.03.05.05.1.08.16.16-.15.29-.32.41-.53.78-1.44-.43-2.6-1.44-2.6-.1,0-.2.01-.31.04"/>
      <path class="cls-1" d="M6.13,86.1c1.03,2.47,4.6,3.91,6.16.82-1.02.7-2.25,1.22-3.5.3-4.3-3.17,1.2-10.1,5.74-5.86,1.29,1.2,2.34,3.52,1.42,4.72-.38-1.16-2.36-1.88-3.47-1.38,4.63,4.73,1.39,8.58-2.89,11.23,2.55-3.53-.94-9.27-5.93-7.4-.06.02-.13.05-.2.08.02.06.04.13.06.19.12-.05.23-.09.36-.14,5.05-1.61,8.42,4.61,4.77,7.82-.52.3-1.04.57-1.57.82.17.35.35.69.52,1.03,4.63-1.89,8.2-3.93,9.81-9.11,1.42-4.53-.98-9.35-5.25-10.34-.43-.09-.85-.14-1.25-.14-3.73,0-6.21,3.97-4.78,7.37"/>
      <path class="cls-1" d="M.01,66.3c0,.21-.01.41-.01.6,7.33-.74,13.26,5.47,15.91,12.93l.39-.22c-2.57-7.27-8.16-13.36-15.13-13.36-.39,0-.77.02-1.16.05"/>
      <path class="cls-1" d="M6.33,76.37c1.55-2.69,5.02-2.19,6.56.22l1.46,1.45c-.85-2.58-3.63-6.47-6.71-6.59h-.21c-3.8,0-5.87,3.92-1.09,4.91"/>
      <path class="cls-1" d="M1.33,68.57c-.49.17-.93.42-1.3.69.04,1.44.13,2.84.26,4.25.46.07,1.01.05,1.67-.07.4-2.98,3.7-3.79,5.94-2.2l1.84.76c-1.43-1.67-4.4-3.68-6.98-3.68-.49,0-.97.08-1.43.25"/>
      <path class="cls-1" d="M1.84,82.9c1.09-.93,1.16-2.38-.73-3.44.21,1.16.46,2.31.73,3.44"/>
      <path class="cls-1" d="M63.53,68.51s7.56,3.81,7.97,12.23c.41,8.42-1.96,8.41.43,11.9,0,0,1.68,3.05.93,5.21,0,0-1.14-2.44-2.69-3.05-1.55-.61-2.19-2.21-2.19-2.21,0,0-1.59-.04-2.16-.41-.57-.37-2.7-1.02-3.51-.76,0,0,2.24-2.09,5.28-1.74,0,0,1.96.14,1.03-4.05-.93-4.2-2.61-7.58-8.36-8.62,0,0-.66,4.16,1.09,6.06,0,0-4.46-1.57-5.9-6.28,0,0-3.62.63-7.24-.43,0,0-2.19-.49-3.72-.01-2.96.92-6.09.71-4.16-.66,1.27-.9,2.88-1.51,2.88-1.51,0,0-1.09-1.95,1.69-3.76,2.78-1.82,5.18-2.72,6.6-3.02,1.42-.3,3.45-.46,6.04-1.31,2.59-.85,5.37-2.16,8.64-.43,0,0-5.7,1.49-2.66,2.85Z"/>
    </g>
  </g>
  <g id="Layer_1-2" data-name="Layer 1">
    <g>
      <path class="cls-1" d="M160.93,39.49v-22.12c0-3.66,2.45-5.51,7.35-5.51h12.9c4.88,0,7.35,1.85,7.35,5.51v22.12h-7.35v-9.21h-12.9v9.21h-7.35ZM181.18,21.07c0-1.23-1.24-1.85-3.7-1.85h-5.51c-2.47,0-3.69.62-3.69,1.85v1.86h12.9v-1.86Z"/>
      <path class="cls-1" d="M192.3,11.86h20.31c4.91,0,7.39,1.85,7.39,5.51v16.61c0,3.69-2.48,5.52-7.39,5.52h-20.31V11.86ZM199.74,22.92h9.18c.31,0,.63-.01.96-.06.33-.02.62-.09.88-.2.27-.1.48-.24.67-.42.19-.17.29-.4.29-.68s-.05-.59-.11-.88c-.07-.29-.22-.53-.44-.75-.21-.19-.5-.35-.91-.48-.38-.13-.88-.2-1.5-.2h-9.03v3.67ZM199.74,32.1h9.03c.62,0,1.13-.08,1.5-.2.41-.12.7-.28.91-.49.21-.2.36-.46.44-.73.06-.3.11-.59.11-.89,0-.27-.1-.49-.29-.67-.19-.19-.41-.32-.67-.42-.26-.11-.55-.18-.88-.21-.33-.04-.65-.07-.96-.07h-9.18v3.68Z"/>
      <path class="cls-1" d="M251.39,33.98c0,3.69-2.46,5.52-7.35,5.52h-12.91c-4.91,0-7.36-1.83-7.36-5.52V11.86h7.31v18.42c.04,1.24,1.28,1.84,3.74,1.84h5.52c2.46,0,3.7-.6,3.7-1.84V11.86h7.35v22.12Z"/>
      <path class="cls-1" d="M160.93,120.98V44.48h32.52c7.88,0,11.8,5.1,11.8,15.28v45.97c0,10.19-3.92,15.26-11.8,15.26h-32.52ZM172.73,64.77v35.86h14.77c3.97,0,5.95-1.73,5.95-5.14v-25.5c0-3.48-1.98-5.21-5.95-5.21h-14.77Z"/>
      <path class="cls-1" d="M211.31,120.98v-61.23c0-10.18,3.93-15.28,11.81-15.28h20.72c7.88,0,11.82,5.1,11.82,15.28v61.23h-11.82v-25.5h-20.72v25.5h-11.81ZM243.85,69.98c0-3.4-1.99-5.12-5.94-5.12h-8.85c-3.95,0-5.93,1.71-5.93,5.12v5.12h20.72v-5.12Z"/>
      <path class="cls-1" d="M261.71,44.48h32.59c7.91,0,11.87,5.1,11.87,15.28v45.97c0,10.19-3.97,15.26-11.87,15.26h-32.59V44.48ZM273.66,75.11h14.75c.49,0,1.01-.05,1.53-.16.52-.09.99-.3,1.42-.56.43-.28.79-.67,1.09-1.15.31-.5.46-1.12.46-1.89,0-.83-.06-1.65-.2-2.46-.12-.79-.35-1.47-.7-2.03-.33-.56-.81-1.02-1.44-1.36-.62-.35-1.41-.52-2.38-.52h-14.53v10.13ZM273.66,100.52h14.53c.97,0,1.77-.17,2.38-.53.62-.36,1.11-.81,1.44-1.36.35-.55.59-1.25.7-2.03.13-.82.2-1.63.2-2.46,0-.78-.15-1.41-.46-1.89-.3-.49-.67-.87-1.09-1.15-.42-.29-.89-.49-1.42-.57-.51-.12-1.04-.17-1.53-.17h-14.75v10.16Z"/>
      <path class="cls-1" d="M312.23,44.48h32.59c7.91,0,11.86,5.1,11.86,15.28v45.97c0,10.19-3.95,15.26-11.86,15.26h-32.59V44.48ZM324.16,75.11h14.78c.49,0,1-.05,1.5-.16.53-.09,1-.3,1.43-.56.42-.28.79-.67,1.1-1.15.29-.5.45-1.12.45-1.89,0-.83-.08-1.65-.2-2.46-.11-.79-.35-1.47-.68-2.03-.34-.56-.82-1.02-1.45-1.36-.63-.35-1.43-.52-2.4-.52h-14.54v10.13ZM324.16,100.52h14.54c.96,0,1.77-.17,2.4-.53.63-.36,1.11-.81,1.45-1.36.34-.55.57-1.25.68-2.03.12-.82.2-1.63.2-2.46,0-.78-.17-1.41-.45-1.89-.31-.49-.68-.87-1.1-1.15-.43-.29-.9-.49-1.43-.57-.5-.12-1.01-.17-1.5-.17h-14.78v10.16Z"/>
      <path class="cls-1" d="M362.74,120.98v-61.23c0-10.18,3.93-15.28,11.82-15.28h20.71c7.89,0,11.83,5.1,11.83,15.28v61.23h-11.83v-25.5h-20.71v25.5h-11.82ZM395.27,69.98c0-3.4-1.98-5.12-5.94-5.12h-8.84c-3.96,0-5.92,1.71-5.92,5.12v5.12h20.71v-5.12Z"/>
      <path class="cls-1" d="M413.14,44.48h32.57c7.93,0,11.87,5.1,11.87,15.28v45.97c0,10.19-3.95,15.26-11.87,15.26h-32.57V44.48ZM425.09,75.11h14.77c.47,0,.98-.05,1.5-.16.54-.09,1.01-.3,1.43-.56.42-.28.78-.67,1.09-1.15.31-.5.46-1.12.46-1.89,0-.83-.06-1.65-.17-2.46-.13-.79-.36-1.47-.7-2.03-.36-.56-.82-1.02-1.45-1.36-.63-.35-1.43-.52-2.39-.52h-14.53v10.13ZM425.09,100.52h14.53c.97,0,1.76-.17,2.39-.53.63-.36,1.1-.81,1.45-1.36.33-.55.56-1.25.7-2.03.11-.82.17-1.63.17-2.46,0-.78-.15-1.41-.46-1.89-.31-.49-.67-.87-1.09-1.15-.42-.29-.89-.49-1.43-.57-.51-.12-1.03-.17-1.5-.17h-14.77v10.16Z"/>
    </g>
  </g>
</svg>