<svg xmlns="http://www.w3.org/2000/svg" viewBox="0 0 458.16 137.58"><defs><style>.cls-1{fill:#005076;}.cls-2{fill:#ef7d00;}.cls-16,.cls-3{fill:#007db0;}.cls-4{fill:#9185be;}.cls-5{fill:#006ea0;}.cls-6{fill:#009640;}.cls-14,.cls-7{fill:#009fe3;}.cls-15,.cls-8{fill:#e50046;}.cls-9{fill:#d30d52;}.cls-10{fill:#971f81;}.cls-11{fill:#0f4c6c;}.cls-12{fill:#fbc700;}.cls-13{fill:#83d0f5;}.cls-14,.cls-15,.cls-16{fill-rule:evenodd;}.cls-17{fill:#00713c;}.cls-18{fill:#5c2483;}</style></defs><g id="Layer_2" data-name="Layer 2"><g id="Layer_1-2" data-name="Layer 1"><path class="cls-1" d="M79.9,133.33c-.05.19-.53,1.14-.71,1.16a1.89,1.89,0,0,0,1.24-1.07,3.65,3.65,0,0,0,.15-1.58l.85-.12a2.91,2.91,0,0,1-1,3.07,1.68,1.68,0,0,0,1.62-1,7,7,0,0,0,.71-1.74l.16-1c0-.05.5-.32.55-.39.44-.46.37-1,.63-1.55a2.74,2.74,0,0,1,1.17-1,11.52,11.52,0,0,1,1.63-.42c.25,0,.43-.07.43,0s0-.61,0-.61c-.66-.27-1.36-.4-2-.73a6.2,6.2,0,0,1-1.44-.95,7.34,7.34,0,0,1-1-1.45s-1.47-2.13-5.19-2.17c0,0-4.47.27-5.25-.82a1.73,1.73,0,0,0-.34-.41c0,1.08,1.16,1.66,2.09,1.69.36,0,1.32,0,1.51.36a3.17,3.17,0,0,1-.45,3.37s-2.58-2.27-3.6-2.38c.25,0,.8,1.14.91,1.33a7.49,7.49,0,0,1,1,4.3c0,.59-.17,1.23-.25,1.81a3.53,3.53,0,0,0-.16,1.05c.89-.09,1.42-1.64,1.7-2.32s.45-1.12.64-1.69c-.12.36.35.69.44,1a7.72,7.72,0,0,1,.1,1.18,18.94,18.94,0,0,0,.2,2.37c.09.34,0,1.37.43,1.5s1.36-1.06,1.72-1.33a9.87,9.87,0,0,1,1.5-.9,5.23,5.23,0,0,1,0,1.37"/><path class="cls-2" d="M32.43,10.39A69.14,69.14,0,0,0,6.65,39.23c3.19-2.28,7.78-5.13,9.7-4.09,3.08,1.69,3,12.49,3,12.49s1.12-11.11,6.08-13.08,11.62,5,11.62,5-5.19-7.31-4.39-11.87,13.38-5.38,13.38-5.38-11.14.25-12.3-3.7S41.09,6,41.09,6Z"/><path class="cls-3" d="M130.52,66.05c2.68,2.89,4.86,4.28,2.85,9.06a16.22,16.22,0,0,0,4.21-6.28v0c0-1.77-.07-3.53-.2-5.28A5.44,5.44,0,0,0,133,60a1.66,1.66,0,0,0-.32,0,3.47,3.47,0,0,0-2.16,6"/><path class="cls-4" d="M39.34,66.48c3.22,2.6,3.41,7.54-2.72,7.26S25.5,74.31,22.54,81c0,0-.64-8.46,3.79-12.68a12.13,12.13,0,0,1,7.2-3.52,8,8,0,0,1,5.81,1.66"/><path class="cls-3" d="M115.7,71.67l-5-3.39s-2.06-1.81-3.92-.1a30,30,0,0,0-3.47,3.94L98.63,72c-.93,0-1-2.35-1.69-2.87-.4-.3-3.1,2.37-3.75,2.49-1.57.26-3.73-.74-5-1.57a21.94,21.94,0,0,1-5.91-5.31c-.36-.52-1.75-2.67-2.63-2.35-.57.22.31,2.52.41,3a15.78,15.78,0,0,0,1.71,4.28c.63,1.21,1.61,2.38,1.19,3.77A12,12,0,0,1,81.77,76a21.1,21.1,0,0,1-1.84,2.67A15.39,15.39,0,0,0,78,80.74c-.78,1.5,1.36.63,2.1.4,2.68-.9,5.29-1.86,7.94-2.86,1.38-.51,3.54-1.4,5-.51,1.14.67-1.86,5.52-.77,6.72a32.53,32.53,0,0,0,3.6-1.55,15,15,0,0,1,3.85-.57s3.83-.25,4.13.84l.55,2.86s.25.36,2,.05,5.44-2.2,5.84-2.12c10.85,1.87,23.11-1.48,23.11-1.48.83-.41,1.06-.75.19-1.31a1.51,1.51,0,0,0,1.39-.22,1.29,1.29,0,0,0,.17-.16c.05-.06-7.7-4.8-8.25-5.08a36.71,36.71,0,0,0-13.15-4.08"/><path class="cls-3" d="M58.23,102.92c.59-1.22,2-2,3.09-2.61a31.34,31.34,0,0,1,4.33-1.12c.65-.13,1.12-.17,1.13-.07,0-.17.11-1.6.08-1.62-1.75-.7-3.6-1.07-5.32-1.91a16.13,16.13,0,0,1-3.83-2.51c-1.28-1.16-1.77-2.49-2.71-3.84,0,0-3.88-5.61-13.72-5.75,0,0-11.81.74-13.86-2.16a4.59,4.59,0,0,0-.91-1c0,2.83,3.08,4.35,5.52,4.43.95,0,3.5-.11,4,1a8.36,8.36,0,0,1-1.2,8.89s-6.8-6-9.5-6.31c.67.08,2.12,3,2.42,3.54a19.84,19.84,0,0,1,2.72,11.37c-.08,1.53-.42,3.23-.65,4.78a9.27,9.27,0,0,0-.41,2.78c2.33-.27,3.74-4.36,4.46-6.15.6-1.46,1.2-3,1.71-4.46-.32.94.91,1.84,1.17,2.76A21.38,21.38,0,0,1,37,106c.22,2.07,0,4.2.53,6.25.23.93-.06,3.65,1.12,4s3.6-2.82,4.53-3.54c.28-.2,4-2.63,4-2.35a14.44,14.44,0,0,1-.07,3.6c-.12.49-1.36,3-1.86,3a5,5,0,0,0,3.29-2.82c.6-1.32.38-2.75.41-4.16l2.21-.34c.79,3.36-.08,5.69-2.64,8.12a4.44,4.44,0,0,0,4.29-2.63,16.61,16.61,0,0,0,1.87-4.56l.42-2.59c0-.11,1.3-.87,1.45-1,1.18-1.22,1-2.69,1.66-4.07"/><path class="cls-5" d="M72.76,114.89a14.1,14.1,0,0,1,1.88-.46c.28-.05.49-.07.49,0s.06-.69,0-.7c-.74-.31-1.55-.48-2.29-.85a7.19,7.19,0,0,1-1.66-1.11,9.14,9.14,0,0,1-1.16-1.68s-1.66-2.45-5.93-2.54c0,0-5.12.26-6-1a2.22,2.22,0,0,0-.39-.47c0,1.23,1.32,1.9,2.38,2,.41,0,1.51,0,1.72.42a3.62,3.62,0,0,1-.55,3.86s-2.93-2.64-4.1-2.78c.3,0,.91,1.32,1,1.55a8.58,8.58,0,0,1,1.13,5c0,.65-.2,1.39-.3,2.07a3.9,3.9,0,0,0-.19,1.2c1-.11,1.64-1.88,2-2.65s.53-1.27.76-1.93c-.14.41.39.8.5,1.21a8.45,8.45,0,0,1,.1,1.34,19.05,19.05,0,0,0,.21,2.72c.09.4,0,1.58.47,1.73s1.57-1.21,2-1.51a10.94,10.94,0,0,1,1.74-1,6.26,6.26,0,0,1,0,1.56c-.06.22-.6,1.29-.82,1.31a2.12,2.12,0,0,0,1.43-1.2,4.4,4.4,0,0,0,.2-1.81l1-.14a3.34,3.34,0,0,1-1.17,3.52A1.91,1.91,0,0,0,69,121.3a7.2,7.2,0,0,0,.84-2L70,118.2s.57-.37.64-.44c.51-.52.43-1.15.73-1.75a3.23,3.23,0,0,1,1.36-1.12"/><path class="cls-6" d="M109.78,102.37a1.48,1.48,0,0,0,0-.19l0,.19m-1.73-9.71.16-.09a.16.16,0,0,0-.16.09m-11.8-4.22c.2.2-.2.59,0,.59.2.19.58,0,.58.19a11.5,11.5,0,0,0-4.12,2.56h.79a8.36,8.36,0,0,0-2.16,2.94,10.56,10.56,0,0,1,4.52-2.94c0,.19-.2.59-.2.79a2.79,2.79,0,0,1,2.35.58,6,6,0,0,0-6.86,6.48c.39-.59,1-1.17,1.17-1.57.2.2.2.2.2.4.19-.6.59-1.19.78-1.77,1-.2,2.36-.79,3.34-.59a6.88,6.88,0,0,0-2.94,3.33l1.17-.59a5.58,5.58,0,0,0-1,1.17,9,9,0,0,1,1-.19c-.19,0-.19.19-.19.39a2.88,2.88,0,0,0,1.18-.39v.39a15.05,15.05,0,0,0,2.74-.58c-1.57,1.76-1.17,4.91-2,7.06A53.7,53.7,0,0,1,94.09,114c-1.38,4.13-2.19,8.79-3.75,12.7a84.11,84.11,0,0,1-4.89-14.46A22.75,22.75,0,0,0,87,115.13V112a3.43,3.43,0,0,1,1.38,2.75c.1.1.2,0,.3-.1s.19-.2.28-.09v1.16c.2,0,.2-.2.4-.2a18.17,18.17,0,0,0,2,2c-1-1.37.2-3.33-1.57-3.72.2-2-1.37-3.53-1.76-5.5.59.79,1.37,1,1.76,2a2.1,2.1,0,0,0,.39-1c.2.39.4.79.59,1.18l.19-.79c.21.4,0,.79.4,1,.78.19,1.37,1,1.77,2.15a3.35,3.35,0,0,0,0-2.74c.1-.1.15,0,.19,0s.1.09.2,0c-.79-1.58-1.18-3.34-2.94-3.74,1,.21,1.56.21,2.35.4,0-.19-.2-.4-.39-.59.39.4.78.59,1,1.18.2,0,0-.59,0-.59.39.39.79,1,1.18,1.38,0-3.14-1.77-5.3-5.11-4.32,1.77-1.38,3.73-.19,5.69-.19.21-2.36-3.92-4.72-5.29-2.17-.2,0-.2-.39-.4-.39-.19.39-.59.79-.78,1.18-.59,0-.39-.39-1,0,.39-.59.39-1.57,1-2.17a2.07,2.07,0,0,0-1-.38,20.28,20.28,0,0,0,1.57-2.75c-2.36-.19-4.12,2.55-4.91,4.32-.39,0-.39-.4-.78-.59-.4,0,.2.59-.4.59a12.49,12.49,0,0,0-.78-1,1.24,1.24,0,0,1,0,1.18,12.16,12.16,0,0,0-1-1.76c0,.19-.2.78-.2,1-1.57-2.55-4.12-.4-3.92,2,1-1,2.94-1.57,3.34.39-2.16,0-3.93,1-5.89,1.18.39,1,1,1.38,2.35,1.18,0,.39-.39,1.18-.58,1.18a.77.77,0,0,0,.56,0c.17-.06.32-.1.42,0-.79,1.76-1.57,7.06-.79,8.43a4.83,4.83,0,0,1,.2-1.57,6.27,6.27,0,0,0,1.17,2A7.17,7.17,0,0,1,79.56,112c-.39,2.36,1.77,3.52,3.55,4.51A4.38,4.38,0,0,1,81.53,114a.71.71,0,0,1,.59.2,18.25,18.25,0,0,0-.59-1.77l.59.39c.2-.19.39-1,.59-1.18,2,4.32,3.73,8.64,5.3,13.16a22.31,22.31,0,0,1,1.23,9.74c1.49-.46,3-1,4.41-1.54a16.83,16.83,0,0,1-1.33-4.48c-.2-7.45,3.73-17.07,6.48-23.74.19-.19.58.2.78.2a7.21,7.21,0,0,1,1.18-1.37c.4,1.17-.19,2.35-1,3.52a6.48,6.48,0,0,1,1.18-.58c0,.39-.39.78-.6,1.17.4,0,.8,0,1,.4A5.6,5.6,0,0,0,100,111.4c2-.78,2.76-3.33,2.76-5.3.19-.19.38.19.58.19.2-.38.2-1,.59-1.36-.19.39-.19,1.17-.39,1.76.39-.59,1-.78,1.37-1.17a4.2,4.2,0,0,0-1,3.32l1.37-1.36c-.39,1.57-1.37,3.14-1,4.51,2-2.56,3.53-5.49,1.18-8.24a10.12,10.12,0,0,1,1.57,1.37,10,10,0,0,0-1.38-2.94,17.49,17.49,0,0,1,1.77,2.36s.39-.4.59-.4c0,2,.79,3.34.59,5.49,2.36-3.34.78-6.86-2-9.62a4.62,4.62,0,0,1,2.35,2.36,6.84,6.84,0,0,1-.19-2,3.76,3.76,0,0,1,.94,1.77,6.28,6.28,0,0,1,0-2.55c.79,1.76.2,3.93,1.19,5.69a6.06,6.06,0,0,0-1.58-7.65c-1.18-.79-4.51-1.77-5.68-1.18,3.13-2.35,6.27.2,8.43,2.35A7.06,7.06,0,0,0,110,94.52a2.57,2.57,0,0,1,1.18-.19c-.59-.4-1-1.18-1.57-1.58.19-.18.59-.18.78-.58A8.89,8.89,0,0,0,108,93a.92.92,0,0,1,0-.29c-.54.33-1.07.52-1.6.88.39-.39.78-1,1-1.17a7.33,7.33,0,0,0-2.16,1.56c.2-2,2.75-3.53,4.51-2.74-2.15-1-3.53-2.75-5.69-1-.19-1.77-.19-4.52-2.54-4.91-3.34-.78-3.14,2.55-.2,3-.39,0-1,.59-1.57.59.58.38,1.18,1,1.57,1.17-1.18.2-6.48-3.73-7.06-5.3-1,1.57-.2,3.93,2,3.73"/><path class="cls-2" d="M120.69,39.79c-4.31.93-3.22,9.62-2.44,13.23,1.16,5.38,8.06,12.67,8.06,12.67s3.53-8.24,2.09-14.87c-1.08-5-3.1-11.13-6.9-11.13a3.9,3.9,0,0,0-.81.1"/><path class="cls-2" d="M102.86,46.2c-3,4.63-3.26,14.65-3.26,14.65s8.32-3.33,12-9c3-4.6,6.06-10.86,2.35-13.25a3,3,0,0,0-1.68-.5c-3.5,0-7.7,5.47-9.41,8.13"/><path class="cls-2" d="M126.33,35.89C123.94,39.59,130.85,45,134,47a.37.37,0,0,0,.12.07,68.55,68.55,0,0,0-5.71-12.67,3.43,3.43,0,0,0-2,1.53"/><path class="cls-2" d="M112.43,31a6.37,6.37,0,1,0,12.31-2.27c-.69-1-1.4-1.9-2.14-2.82a6.28,6.28,0,0,0-3.81-1.27A6.36,6.36,0,0,0,112.43,31"/><path class="cls-2" d="M116.89,22.28a3.06,3.06,0,0,0,1.67-1,70.65,70.65,0,0,0-8.84-7.81c1.27,4.77,3.45,9.59,7.17,8.79"/><path class="cls-2" d="M98,23.84c4.6,2.95,10.87,6.06,13.27,2.34s-4.53-9.08-7.64-11.09C99,12.12,89,11.85,89,11.85s3.34,8.32,9,12"/><path class="cls-7" d="M119.19,87.38c-16.52,6,8.95,22.6-23.5,37.79,0,0,9.46,1.73,19.53-5.61a69.47,69.47,0,0,0,12.65-15.5c5.63-11.6-.42-17.14-6-17.14a8.09,8.09,0,0,0-2.69.46"/><path class="cls-6" d="M67.36,137.58h0v-7.8c-1.38,0-1.32.89-2.68.8-1.85-.12-3.68-3.49-5.47-3.77a11.17,11.17,0,0,0-4.47.52c-1.73.45-3.42.9-5.08.36-3.67-1.21-4.37-5.27-7.71-7.11-3.67-2-9.94-1.84-13.11-4.52-2.11-1.8-1.66-5.06-3.51-7.12-1.21-1.33-4.81-1.37-5.89-2.8-.77-1,.23-3.46-.48-4.53l-7.25,5.58a68.75,68.75,0,0,0,53.34,30.29h2.28"/><path class="cls-8" d="M77.87,89.62a4.92,4.92,0,1,0,4.92-4.91,4.93,4.93,0,0,0-4.92,4.91"/><path class="cls-9" d="M102,64.79a2.35,2.35,0,1,0,2.35-2.34A2.34,2.34,0,0,0,102,64.79"/><path class="cls-10" d="M116.06,66.73a3.55,3.55,0,1,0-3.54-3.56,3.56,3.56,0,0,0,3.54,3.56"/><path class="cls-11" d="M43.79,30.51A4.47,4.47,0,1,0,48.26,35a4.47,4.47,0,0,0-4.47-4.47"/><path class="cls-8" d="M53.71,33.05a2.73,2.73,0,1,0,2.72,2.73,2.73,2.73,0,0,0-2.72-2.73"/><path class="cls-2" d="M51.55,43.1a2.17,2.17,0,1,0,2.16,2.16,2.16,2.16,0,0,0-2.16-2.16"/><path class="cls-12" d="M21.64,100.23a2.72,2.72,0,1,0,2.72-2.73,2.72,2.72,0,0,0-2.72,2.73"/><path class="cls-3" d="M8.12,41.18a2.72,2.72,0,1,0,2.72-2.71,2.72,2.72,0,0,0-2.72,2.71"/><path class="cls-8" d="M2.68,49.35A2.72,2.72,0,1,0,5.4,46.63a2.72,2.72,0,0,0-2.72,2.72"/><path class="cls-10" d="M1,56.91Q.57,59.54.31,62.23a2.81,2.81,0,0,0,.82.12,2.73,2.73,0,0,0,0-5.45H1"/><path class="cls-13" d="M44.87,4.28c1.62.88,3.44.33,5.3-.22a10.17,10.17,0,0,1,4.21-.65c3.34.51,5.39,3.85,9,4.87a4,4,0,0,0,1.34.06,4.21,4.21,0,0,1,2,.2c1.28.78,1.79,2.83,3.59,3.35s3.08-.77,4.63-.77c2.57-.26,2.57,0,4.62.77,7.11,1.9,9.66-3.33,9.06-9A69.1,69.1,0,0,0,44.87,4.28"/><path class="cls-14" d="M30.48,40.48c.06.16-.23,0-.23.12.36.11.65-.18,1.28-.12.34,0,.73.18,1.08.23a2.81,2.81,0,0,1,1.28.31,4,4,0,0,1,1.51.54,3.1,3.1,0,0,1,.42.08,6.1,6.1,0,0,1,.62.38,19.4,19.4,0,0,1,4.11,2.68,1.85,1.85,0,0,1,.85.61c0,.19-.24.26-.11.43.34.19.68-.2.93-.39.5-.37,1-.75,1.46-1.16a17.3,17.3,0,0,1,1.63-1.47,3.73,3.73,0,0,1,1.59-.51c-.69.88-.7,2.43-1.24,3.45A5,5,0,0,0,46,47.48c.09.36.06.78.16,1.05s.64.55.73,1a4.59,4.59,0,0,1-3.06-1.12c-.71-.49-1.44-.91-2.09-1.39-.19,0-.46,0-.58,0s.12.25.19.43c-.36.62-1,.56-1.62.77a8.19,8.19,0,0,0-1.35.69A16.43,16.43,0,0,1,36.21,50c-.29.13-.56.21-.85.32a7.91,7.91,0,0,1-2,.62c-.31,0-.65.2-1,.23a10.3,10.3,0,0,1-2.13-.08c-.25,0-.47-.13-.74-.15-.78-.08-1.46,0-2.28-.15a5.89,5.89,0,0,1-2.36-1.13,28.61,28.61,0,0,1-2.25-2.56c-.2-.21-.52-.37-.43-.88.06-.32.35-.43.47-.75.56-2.52,2.87-3.29,4.8-4.44a8.61,8.61,0,0,1,3-.54"/><path class="cls-15" d="M43.52,51.71c.06.17-.24,0-.24.12.37.11.65-.17,1.28-.12.34,0,.74.19,1.09.23a2.8,2.8,0,0,1,1.27.32,3.64,3.64,0,0,1,1.51.54c.13.05.3,0,.43.07s.4.28.62.39a20.82,20.82,0,0,1,4.1,2.67,1.94,1.94,0,0,1,.85.62c0,.18-.23.26-.11.43.34.18.68-.2.93-.39.5-.38,1-.75,1.47-1.17A17.08,17.08,0,0,1,58.34,54a3.64,3.64,0,0,1,1.59-.51c-.69.88-.7,2.43-1.24,3.45A5,5,0,0,0,59,58.73c.1.35.06.76.17,1s.64.54.72,1a4.56,4.56,0,0,1-3.06-1.12c-.71-.49-1.44-.92-2.09-1.39-.19,0-.45,0-.57,0s.11.25.19.43c-.36.63-1,.57-1.63.78a10.23,10.23,0,0,0-1.36.69,17.46,17.46,0,0,1-2.12,1.09c-.28.12-.57.2-.85.3a8.05,8.05,0,0,1-2,.63c-.32,0-.65.2-1,.23a13,13,0,0,1-2.13-.07c-.25,0-.47-.14-.74-.16A22.83,22.83,0,0,1,40.3,62a5.87,5.87,0,0,1-2.36-1.12,31.94,31.94,0,0,1-2.25-2.56c-.2-.21-.51-.37-.42-.88,0-.32.34-.43.47-.75.55-2.52,2.86-3.29,4.79-4.44a8.62,8.62,0,0,1,3-.55"/><path class="cls-16" d="M64.8,14.41H63.45c-3.81.41-8.71-.3-9.2,3.46,0,.22,0,.49,0,.78-.13.68-.67,1.06-.11,1.71.07.07.3.15.21.31-3.7-.44-5.66-2.69-9-3.57A7.12,7.12,0,0,1,48,21a4.91,4.91,0,0,1,.05,1.3,17.93,17.93,0,0,1,0,2.64c0,.17-.19.27-.26.47s0,.41-.1.57c-.17.36-.64.59-.57,1,2.83-.5,3.94-2.71,6.57-3.41a5.82,5.82,0,0,0,1,1.65A10.81,10.81,0,0,0,56,27.14a12.61,12.61,0,0,0,4.19,2.54,10.42,10.42,0,0,0,2.75.41c1.48,0,3-.27,4.65-.21-.22.81-.91,1.31-1.19,2.26-.14.5-.35.9.06,1.2h0a7.44,7.44,0,0,0,2.43-1.76,9.94,9.94,0,0,1,1.55-1.7,4.68,4.68,0,0,1,1-.26,13.56,13.56,0,0,0,4.66-2.9c.55-.19,1.15,0,1.5-.36,0-.24-.13-.32-.16-.52.29,0,.6.05.63-.2v-.11c0-.53-.5-.85-.73-1.24-1.08-1.88-1-3.95-1.91-5.59a8.58,8.58,0,0,0-4.24-3.21,18.61,18.61,0,0,0-6.37-1.08"/><path class="cls-17" d="M85.67,23.34c-1.27.55-3.12.54-3.87,1.61.86,2.26,4.23,2,4.68,4.67-2.06-.41-3.65,1-5.33,1.29a4,4,0,0,1-1.09,0,4.17,4.17,0,0,0-1.17,0c-1.66.35-2.47,1.6-3.87,2.43a35.45,35.45,0,0,0-3.71,1.94c-.71.54-1.1,1.33-1.78,1.94s-1.74.86-2.42,1.44c-1.27,1.12-1.8,2.83-3.23,3.55-1.27-1.07-5.22-1.21-6.29.17v1.28a7.19,7.19,0,0,0,4.69,3.88c-.28,1.91,1.1,1.81.65,3.55-1.36.68-3.14.07-4.2-.49.2,2.5,3.26,3,5.8,2.58-.37.74,1.19,1.17,1.14,1.78,0,.33-1.45,1.22-1.79,1.61a11.44,11.44,0,0,0-2.73,7.59,1.07,1.07,0,0,1,.48.32h1.3a15.13,15.13,0,0,0,8.7-8.39,18.18,18.18,0,0,1,2.3.08c1.94.14,3.92.29,5-1.05.21.2.63.18,1,.17a2.65,2.65,0,0,1,.56,0,8.11,8.11,0,0,0,2.27-1.61c2.13,0,4.34-2.11,6-2.58.82,4.37-.6,7.89-1.46,11.13,7.58.59,10.91-11,6.46-16.62a7.09,7.09,0,0,1,1.77-1.77c.18-1.74-.57-2.54-.8-3.87,4-.63,8.43-.93,9.84-4.2a3.12,3.12,0,0,0,1.45-.65v-.64c-.78-2.34-3.21-3.12-6.14-2.74-3.28.42-5.3,4.21-7.57,1.61,2.6-3.25-.82-9.57-4.53-10Z"/><path class="cls-18" d="M11.52,54.73C10,56.25,8.05,59.51,9.83,65.53c2.19,7.35,20.23,21.88,1,35.48L14,99.57c15.8-13.68,0-27.63-2.56-35.53a8.76,8.76,0,0,1,2.44-9.38,5.82,5.82,0,0,1,8.61,4.85,4.59,4.59,0,0,1-7.32,3.8c-1.11-.88-1.73-2.8-.7-4,1.76-2.09,4.63.73,2.83,2l0,.1c2-1.43-1.16-4.38-3.07-2.1-1.11,1.33-.44,3.37.76,4.32a4.76,4.76,0,0,0,7.71-3.88,6,6,0,0,0-7.64-5.85,6.39,6.39,0,0,1,6.4.38C25,56.31,27.23,60.81,24,64.54a5.4,5.4,0,0,1-7.64.88L16,65c2,3.07,6.45,1.91,8.26-.2,3.19-3.7,1.45-8.85-2.1-11.4A7.23,7.23,0,0,0,17.89,52a9.14,9.14,0,0,0-6.37,2.7"/><path class="cls-18" d="M4.93,94.42a.36.36,0,0,1,0,.09,1.59,1.59,0,0,1,1.66,2.37,2.2,2.2,0,0,1-.41.54l.08.16A2,2,0,0,0,6.71,97a1.76,1.76,0,0,0-1.47-2.66,1.1,1.1,0,0,0-.31,0"/><path class="cls-18" d="M6.28,88.11c1,2.53,4.7,4,6.3.85-1,.72-2.3,1.24-3.58.3-4.4-3.24,1.23-10.33,5.88-6,1.32,1.23,2.4,3.6,1.45,4.83a3,3,0,0,0-3.55-1.41c4.74,4.84,1.42,8.78-3,11.49A5.08,5.08,0,0,0,3.76,90.6a.7.7,0,0,0-.2.08l.06.2A2.67,2.67,0,0,1,4,90.74c5.17-1.65,8.62,4.71,4.88,8-.53.3-1.06.58-1.6.83.17.36.35.71.54,1.06,4.73-1.93,8.39-4,10-9.33,1.46-4.64-1-9.57-5.38-10.58a5.66,5.66,0,0,0-1.28-.15,5.45,5.45,0,0,0-4.89,7.54"/><path class="cls-18" d="M0,67.85c0,.21,0,.42,0,.62,7.5-.76,13.57,5.59,16.28,13.24l.4-.23C14.05,74.05,8.33,67.81,1.2,67.81c-.4,0-.79,0-1.19,0"/><path class="cls-18" d="M6.48,78.16c1.58-2.76,5.14-2.24,6.71.22l1.49,1.49c-.87-2.64-3.71-6.63-6.87-6.74H7.6c-3.89,0-6,4-1.12,5"/><path class="cls-18" d="M1.36,70.17A5,5,0,0,0,0,70.88c0,1.47.14,2.9.27,4.34A5.36,5.36,0,0,0,2,75.15c.41-3.05,3.79-3.89,6.08-2.25l1.88.78C8.51,72,5.47,69.91,2.83,69.91a4.07,4.07,0,0,0-1.47.26"/><path class="cls-18" d="M1.89,84.84c1.11-1,1.19-2.44-.75-3.52.21,1.19.47,2.37.75,3.52"/><path class="cls-7" d="M65,70.11s7.74,3.9,8.16,12.52-2,8.61.44,12.18c0,0,1.72,3.12,1,5.34,0,0-1.16-2.5-2.75-3.13a4.46,4.46,0,0,1-2.25-2.26,6.16,6.16,0,0,1-2.21-.42,6.6,6.6,0,0,0-3.6-.77,7.4,7.4,0,0,1,5.41-1.78s2,.14,1-4.15-2.67-7.76-8.55-8.82c0,0-.67,4.25,1.12,6.2a10.47,10.47,0,0,1-6-6.43,18.31,18.31,0,0,1-7.41-.44,8.93,8.93,0,0,0-3.8,0c-3,.94-6.24.73-4.26-.67a15.47,15.47,0,0,1,2.95-1.55s-1.12-2,1.72-3.85A21.35,21.35,0,0,1,52.71,69a44.51,44.51,0,0,0,6.18-1.35c2.66-.87,5.5-2.21,8.85-.44C67.74,67.19,61.9,68.71,65,70.11Z"/><path class="cls-3" d="M161.5,41.86V19.74c0-3.66,2.45-5.51,7.35-5.51h12.9c4.88,0,7.35,1.85,7.35,5.51V41.86h-7.35V32.65h-12.9v9.21Zm20.25-18.42c0-1.23-1.24-1.85-3.7-1.85h-5.51c-2.47,0-3.69.62-3.69,1.85v1.85h12.9Z"/><path class="cls-3" d="M192.87,14.23h20.31c4.91,0,7.39,1.85,7.39,5.51V36.35c0,3.68-2.48,5.51-7.39,5.51H192.87Zm7.44,11.06h9.18a6.4,6.4,0,0,0,1-.06,2.64,2.64,0,0,0,.88-.2,1.91,1.91,0,0,0,.67-.42.88.88,0,0,0,.29-.68,3.85,3.85,0,0,0-.11-.88,1.67,1.67,0,0,0-.43-.75,2.49,2.49,0,0,0-.91-.48,5.11,5.11,0,0,0-1.51-.2h-9Zm0,9.18h9a5.46,5.46,0,0,0,1.51-.2,2.23,2.23,0,0,0,.91-.49,1.56,1.56,0,0,0,.43-.73,3.94,3.94,0,0,0,.11-.89.89.89,0,0,0-.29-.68,1.76,1.76,0,0,0-.67-.41,3.24,3.24,0,0,0-.88-.22c-.33,0-.65-.06-1-.06h-9.18Z"/><path class="cls-3" d="M252,36.35q0,5.52-7.36,5.51H231.69q-7.37,0-7.36-5.51V14.23h7.31V32.65c0,1.24,1.28,1.84,3.75,1.84h5.51c2.46,0,3.7-.6,3.7-1.84V14.23H252Z"/><path class="cls-3" d="M161.5,123.35V46.85H194q11.82,0,11.8,15.27v46c0,10.19-3.92,15.26-11.8,15.26Zm11.8-56.21V103h14.78c4,0,5.94-1.72,5.94-5.14V72.35c0-3.48-2-5.21-5.94-5.21Z"/><path class="cls-3" d="M211.89,123.35V62.12q0-15.27,11.81-15.27h20.72q11.82,0,11.82,15.27v61.23H244.42V97.85H223.7v25.5Zm32.53-51c0-3.4-2-5.12-5.94-5.12h-8.85c-3.95,0-5.93,1.72-5.93,5.12v5.13h20.72Z"/><path class="cls-3" d="M262.28,46.85h32.6q11.87,0,11.87,15.27v46c0,10.19-4,15.26-11.87,15.26h-32.6Zm12,30.63H289a7.37,7.37,0,0,0,1.52-.17,4,4,0,0,0,1.42-.56A3.55,3.55,0,0,0,293,75.6a3.51,3.51,0,0,0,.46-1.89,15.68,15.68,0,0,0-.19-2.46,5.3,5.3,0,0,0-.71-2,3.62,3.62,0,0,0-1.44-1.35,4.66,4.66,0,0,0-2.38-.52H274.23Zm0,25.41h14.53a4.66,4.66,0,0,0,2.38-.53,3.86,3.86,0,0,0,1.44-1.36,5.3,5.3,0,0,0,.71-2,15.59,15.59,0,0,0,.19-2.46,3.44,3.44,0,0,0-.46-1.89,3.55,3.55,0,0,0-1.09-1.15,3.47,3.47,0,0,0-1.42-.56,6.24,6.24,0,0,0-1.52-.18H274.23Z"/><path class="cls-3" d="M312.8,46.85h32.59q11.85,0,11.86,15.27v46c0,10.19-4,15.26-11.86,15.26H312.8Zm11.93,30.63h14.78a7.13,7.13,0,0,0,1.51-.17,4.07,4.07,0,0,0,1.43-.56,3.8,3.8,0,0,0,1.1-1.15,3.7,3.7,0,0,0,.45-1.89,17,17,0,0,0-.2-2.46,5.46,5.46,0,0,0-.68-2,3.68,3.68,0,0,0-1.46-1.35,4.75,4.75,0,0,0-2.39-.52H324.73Zm0,25.41h14.54a4.75,4.75,0,0,0,2.39-.53,3.92,3.92,0,0,0,1.46-1.36,5.46,5.46,0,0,0,.68-2,16.89,16.89,0,0,0,.2-2.46,3.62,3.62,0,0,0-.45-1.89,3.8,3.8,0,0,0-1.1-1.15,3.57,3.57,0,0,0-1.43-.56,6,6,0,0,0-1.51-.18H324.73Z"/><path class="cls-3" d="M363.32,123.35V62.12q0-15.27,11.82-15.27h20.7q11.84,0,11.83,15.27v61.23H395.84V97.85h-20.7v25.5Zm32.52-51c0-3.4-2-5.12-5.94-5.12h-8.84c-4,0-5.92,1.72-5.92,5.12v5.13h20.7Z"/><path class="cls-3" d="M413.71,46.85h32.58c7.93,0,11.87,5.09,11.87,15.27v46c0,10.19-3.94,15.26-11.87,15.26H413.71Zm12,30.63h14.77a7.26,7.26,0,0,0,1.5-.17,3.93,3.93,0,0,0,1.43-.56,3.77,3.77,0,0,0,1.09-1.15,3.51,3.51,0,0,0,.45-1.89,18.49,18.49,0,0,0-.17-2.46,5.66,5.66,0,0,0-.7-2,3.78,3.78,0,0,0-1.45-1.35,4.78,4.78,0,0,0-2.39-.52H425.66Zm0,25.41h14.53a4.78,4.78,0,0,0,2.39-.53A4,4,0,0,0,444,101a5.66,5.66,0,0,0,.7-2,18.38,18.38,0,0,0,.17-2.46,3.44,3.44,0,0,0-.45-1.89,3.77,3.77,0,0,0-1.09-1.15,3.46,3.46,0,0,0-1.43-.56,6.14,6.14,0,0,0-1.5-.18H425.66Z"/></g></g></svg>